# xmcd
#
# Track frame offsets:
#	150
#	12679
#	28357
#	42978
#	73064
#
# Disc length: 1135 seconds
#
# Revision: 1
# Processed by: cddbd v1.5.2PL0 Copyright (c) Steve Scherf et al.
# Submitted via: audiograbber 1.83.01
#
DISCID=47046d05
DTITLE=Double Dagger - Masks
DYEAR=2010
DGENRE=Hardcore
TTITLE0=Imitation Is The Most Boring Form Of Flattery
TTITLE1=Pillow Talk
TTITLE2=Sheep In Wolf´s Clothing
TTITLE3=Sleeping With The TV On
TTITLE4=Song For S
EXTD=
EXTT0=
EXTT1=
EXTT2=
EXTT3=
EXTT4=
PLAYORDER=
